<svg xmlns="http://www.w3.org/2000/svg" xmlns:xlink="http://www.w3.org/1999/xlink" xmlns:lucid="lucid" width="1291" height="580"><g transform="translate(-260 -360)" lucid:page-tab-id="0_0"><path d="M0 0h1870.87v1322.83H0z" fill="#fff"/><path d="M760 557.42c0-3.32 2.7-6 6-6h228c3.3 0 6 2.68 6 6v208c0 3.3-2.7 6-6 6H766c-3.3 0-6-2.7-6-6z" stroke="#5e5e5e" stroke-width="3" fill="#fcc438"/><use xlink:href="#a" transform="matrix(1,0,0,1,765,556.4173228346456) translate(16.666666666666714 109.65277777777777)"/><use xlink:href="#b" transform="matrix(1,0,0,1,765,556.4173228346456) translate(76.41975308641977 109.65277777777777)"/><use xlink:href="#c" transform="matrix(1,0,0,1,765,556.4173228346456) translate(165.18518518518516 109.65277777777777)"/><path d="M280 606c0-3.3 2.7-6 6-6h208c3.3 0 6 2.7 6 6v108c0 3.3-2.7 6-6 6H286c-3.3 0-6-2.7-6-6z" stroke="#5e5e5e" stroke-width="3" fill="#fff"/><use xlink:href="#d" transform="matrix(1,0,0,1,285,605) translate(41.29629629629632 45.27777777777777)"/><use xlink:href="#e" transform="matrix(1,0,0,1,285,605) translate(110.80246913580247 45.27777777777777)"/><use xlink:href="#f" transform="matrix(1,0,0,1,285,605) translate(34.72222222222226 71.94444444444443)"/><path d="M280 386c0-3.3 2.7-6 6-6h228c3.3 0 6 2.7 6 6v108c0 3.3-2.7 6-6 6H286c-3.3 0-6-2.7-6-6z" stroke="#5e5e5e" stroke-width="3" fill="#fff"/><use xlink:href="#g" transform="matrix(1,0,0,1,285,385) translate(48.858024691358054 45.27777777777777)"/><use xlink:href="#e" transform="matrix(1,0,0,1,285,385) translate(123.24074074074073 45.27777777777777)"/><use xlink:href="#h" transform="matrix(1,0,0,1,285,385) translate(68.82716049382718 71.94444444444443)"/><path d="M1180 726c0-3.3 2.7-6 6-6h188c3.3 0 6 2.7 6 6v148c0 3.3-2.7 6-6 6h-188c-3.3 0-6-2.7-6-6z" stroke="#5e5e5e" stroke-width="3" fill="#fcc438"/><use xlink:href="#i" transform="matrix(1,0,0,1,1185,725) translate(10.895061728395092 64.65277777777777)"/><use xlink:href="#j" transform="matrix(1,0,0,1,1185,725) translate(84.16666666666666 64.65277777777777)"/><use xlink:href="#k" transform="matrix(1,0,0,1,1185,725) translate(67.25308641975309 91.31944444444443)"/><path d="M280 806c0-3.3 2.7-6 6-6h208c3.3 0 6 2.7 6 6v108c0 3.3-2.7 6-6 6H286c-3.3 0-6-2.7-6-6z" stroke="#5e5e5e" stroke-width="3" fill="#fff"/><use xlink:href="#l" transform="matrix(1,0,0,1,285,805) translate(12.28395061728395 59.02777777777778)"/><use xlink:href="#m" transform="matrix(1,0,0,1,285,805) translate(73.2716049382716 59.02777777777778)"/><use xlink:href="#n" transform="matrix(1,0,0,1,285,805) translate(137.34567901234567 59.02777777777778)"/><path d="M641 600.53l.7 2.65 1.8 1.77 2.63.72H757.5v2H645.87l-3.42-.93-2.53-2.53-.92-3.4V534h2m-3.45-94.08l2.53 2.53.92 3.42v66.8h-2v-66.54l-.7-2.64-1.8-1.8-2.63-.7H540v-2h94.13" fill="#5e5e5e"/><path d="M758.5 607.67h-1.03v-2h1.03M539 444.64L524.74 440l14.26-4.64z" fill="#5e5e5e"/><path d="M540 446l-18.5-6 18.5-6m-12.03 6l10.03 3.26v-6.52" fill="#5e5e5e"/><use xlink:href="#o" transform="matrix(1,0,0,1,539.9753086419753,512.6666666666666) translate(0 14.222222222222223)"/><path d="M524.6 662.42H520v-2h4.6m232.9 2h-22.1v-2h22.1" fill="#5e5e5e"/><path d="M758.5 662.42h-1.03v-2h1.03M519 666.05l-14.26-4.63 14.26-4.64z" fill="#5e5e5e"/><path d="M520 667.43l-18.5-6 18.5-6.02m-12.03 6.02l10.03 3.26v-6.52" fill="#5e5e5e"/><use xlink:href="#p" transform="matrix(1,0,0,1,524.5925925925926,650.750656167979) translate(0 14.222222222222223)"/><path d="M1432.18 841H1400v-2h32.18m106.82 2h-49.68v-2H1539" fill="#5e5e5e"/><path d="M1540 841h-1.03v-2h1.03M1399 844.64l-14.26-4.64 14.26-4.64z" fill="#5e5e5e"/><path d="M1400 846l-18.5-6 18.5-6m-12.03 6l10.03 3.26v-6.52" fill="#5e5e5e"/><use xlink:href="#q" transform="matrix(1,0,0,1,1432.182098765432,829.3333333333334) translate(0 14.222222222222223)"/><path d="M1177.5 600H1020M1177.47 600h1.03" stroke="#5e5e5e" stroke-width="2" fill="none"/><path d="M1004.74 600l14.26-4.64v9.28z" stroke="#5e5e5e" stroke-width="2" fill="#5e5e5e"/><use xlink:href="#q" transform="matrix(1,0,0,1,1061.432098765432,574.6666666666667) translate(0 14.222222222222223)"/><path d="M1091 793.87l.7 2.64 1.8 1.8 2.63.7h81.37v2h-81.63l-3.42-.92-2.53-2.53-.92-3.42v-30.8h2m-3.45-58.07l2.53 2.53.92 3.4V742h-2v-30.53l-.7-2.65-1.8-1.77-2.63-.72H1020v-2h64.13" fill="#5e5e5e"/><path d="M1178.5 801h-1.03v-2h1.03M1019 709.97l-14.26-4.64 14.26-4.63z" fill="#5e5e5e"/><path d="M1020 711.35l-18.5-6.02 18.5-6m-12.03 6l10.03 3.26v-6.53" fill="#5e5e5e"/><use xlink:href="#r" transform="matrix(1,0,0,1,1044.7407407407406,742.0000000000001) translate(0 14.222222222222223)"/><path d="M539.23 838.33H520v-2h19.23m218.27-96.66H636.13l-2.64.7-1.8 1.8-.7 2.63v81.87h-2v-82.14l.92-3.4 2.53-2.54 3.42-.93H757.5" fill="#5e5e5e"/><path d="M758.5 739.67h-1.03v-2h1.03M519 841.97l-14.26-4.64L519 832.7z" fill="#5e5e5e"/><path d="M520 843.35l-18.5-6.02 18.5-6m-12.03 6L518 840.6v-6.53M837.55 837.26l2.53 2.53.92 3.4v8l.7 2.64 1.8 1.78 2.63.7h331.37v2H845.87l-3.42-.9-2.53-2.54-.92-3.4v-8l-.7-2.66-1.8-1.77-2.63-.72h-133.1v-2h133.36m-314.13 2v-2h19.23v2" fill="#5e5e5e"/><path d="M1178.5 858.33h-1.03v-2h1.03M519 841.97l-14.26-4.64L519 832.7z" fill="#5e5e5e"/><path d="M520 843.35l-18.5-6.02 18.5-6m-12.03 6L518 840.6v-6.53" fill="#5e5e5e"/><g><use xlink:href="#s" transform="matrix(1,0,0,1,539.2345679012345,826.6666666666667) translate(0 14.222222222222223)"/></g><defs><path fill="#333" d="M30 0v-248h187v28H63v79h144v27H63v87h162V0H30" id="t"/><path fill="#333" d="M108 0H70L1-190h34L89-25l56-165h34" id="u"/><path fill="#333" d="M100-194c63 0 86 42 84 106H49c0 40 14 67 53 68 26 1 43-12 49-29l28 8c-11 28-37 45-77 45C44 4 14-33 15-96c1-61 26-98 85-98zm52 81c6-60-76-77-97-28-3 7-6 17-6 28h103" id="v"/><path fill="#333" d="M47-170H22l-4-78h33" id="w"/><path fill="#333" d="M135-143c-3-34-86-38-87 0 15 53 115 12 119 90S17 21 10-45l28-5c4 36 97 45 98 0-10-56-113-15-118-90-4-57 82-63 122-42 12 7 21 19 24 35" id="x"/><g id="a"><use transform="matrix(0.06172839506172837,0,0,0.06172839506172837,0,0)" xlink:href="#t"/><use transform="matrix(0.06172839506172837,0,0,0.06172839506172837,14.81481481481481,0)" xlink:href="#u"/><use transform="matrix(0.06172839506172837,0,0,0.06172839506172837,25.925925925925917,0)" xlink:href="#v"/><use transform="matrix(0.06172839506172837,0,0,0.06172839506172837,38.271604938271594,0)" xlink:href="#w"/><use transform="matrix(0.06172839506172837,0,0,0.06172839506172837,42.469135802469125,0)" xlink:href="#x"/></g><path fill="#333" d="M141-36C126-15 110 5 73 4 37 3 15-17 15-53c-1-64 63-63 125-63 3-35-9-54-41-54-24 1-41 7-42 31l-33-3c5-37 33-52 76-52 45 0 72 20 72 64v82c-1 20 7 32 28 27v20c-31 9-61-2-59-35zM48-53c0 20 12 33 32 33 41-3 63-29 60-74-43 2-92-5-92 41" id="y"/><path fill="#333" d="M206 0h-36l-40-164L89 0H53L-1-190h32L70-26l43-164h34l41 164 42-164h31" id="z"/><path fill="#333" d="M100-194c62-1 85 37 85 99 1 63-27 99-86 99S16-35 15-95c0-66 28-99 85-99zM99-20c44 1 53-31 53-75 0-43-8-75-51-75s-53 32-53 75 10 74 51 75" id="A"/><path fill="#333" d="M210-169c-67 3-38 105-44 169h-31v-121c0-29-5-50-35-48C34-165 62-65 56 0H25l-1-190h30c1 10-1 24 2 32 10-44 99-50 107 0 11-21 27-35 58-36 85-2 47 119 55 194h-31v-121c0-29-5-49-35-48" id="B"/><g id="b"><use transform="matrix(0.06172839506172837,0,0,0.06172839506172837,0,0)" xlink:href="#y"/><use transform="matrix(0.06172839506172837,0,0,0.06172839506172837,12.345679012345673,0)" xlink:href="#z"/><use transform="matrix(0.06172839506172837,0,0,0.06172839506172837,28.33333333333332,0)" xlink:href="#x"/><use transform="matrix(0.06172839506172837,0,0,0.06172839506172837,39.44444444444443,0)" xlink:href="#A"/><use transform="matrix(0.06172839506172837,0,0,0.06172839506172837,51.7901234567901,0)" xlink:href="#B"/><use transform="matrix(0.06172839506172837,0,0,0.06172839506172837,70.24691358024688,0)" xlink:href="#v"/></g><path fill="#333" d="M117-194c89-4 53 116 60 194h-32v-121c0-31-8-49-39-48C34-167 62-67 57 0H25l-1-190h30c1 10-1 24 2 32 11-22 29-35 61-36" id="C"/><path fill="#333" d="M177-190C167-65 218 103 67 71c-23-6-38-20-44-43l32-5c15 47 100 32 89-28v-30C133-14 115 1 83 1 29 1 15-40 15-95c0-56 16-97 71-98 29-1 48 16 59 35 1-10 0-23 2-32h30zM94-22c36 0 50-32 50-73 0-42-14-75-50-75-39 0-46 34-46 75s6 73 46 73" id="D"/><g id="c"><use transform="matrix(0.06172839506172837,0,0,0.06172839506172837,0,0)" xlink:href="#x"/><use transform="matrix(0.06172839506172837,0,0,0.06172839506172837,11.111111111111107,0)" xlink:href="#A"/><use transform="matrix(0.06172839506172837,0,0,0.06172839506172837,23.45679012345678,0)" xlink:href="#C"/><use transform="matrix(0.06172839506172837,0,0,0.06172839506172837,35.802469135802454,0)" xlink:href="#D"/></g><path fill="#333" d="M205 0l-28-72H64L36 0H1l101-248h38L239 0h-34zm-38-99l-47-123c-12 45-31 82-46 123h93" id="E"/><path fill="#333" d="M24 0v-261h32V0H24" id="F"/><path fill="#333" d="M24-231v-30h32v30H24zM24 0v-190h32V0H24" id="G"/><path fill="#333" d="M96-169c-40 0-48 33-48 73s9 75 48 75c24 0 41-14 43-38l32 2c-6 37-31 61-74 61-59 0-76-41-82-99-10-93 101-131 147-64 4 7 5 14 7 22l-32 3c-4-21-16-35-41-35" id="H"/><g id="d"><use transform="matrix(0.06172839506172837,0,0,0.06172839506172837,0,0)" xlink:href="#E"/><use transform="matrix(0.06172839506172837,0,0,0.06172839506172837,14.81481481481481,0)" xlink:href="#F"/><use transform="matrix(0.06172839506172837,0,0,0.06172839506172837,19.69135802469135,0)" xlink:href="#G"/><use transform="matrix(0.06172839506172837,0,0,0.06172839506172837,24.56790123456789,0)" xlink:href="#H"/><use transform="matrix(0.06172839506172837,0,0,0.06172839506172837,35.679012345679,0)" xlink:href="#v"/><use transform="matrix(0.06172839506172837,0,0,0.06172839506172837,48.02469135802467,0)" xlink:href="#w"/><use transform="matrix(0.06172839506172837,0,0,0.06172839506172837,52.2222222222222,0)" xlink:href="#x"/></g><path fill="#333" d="M84 4C-5 8 30-112 23-190h32v120c0 31 7 50 39 49 72-2 45-101 50-169h31l1 190h-30c-1-10 1-25-2-33-11 22-28 36-60 37" id="I"/><g id="e"><use transform="matrix(0.06172839506172837,0,0,0.06172839506172837,0,0)" xlink:href="#B"/><use transform="matrix(0.06172839506172837,0,0,0.06172839506172837,18.456790123456784,0)" xlink:href="#I"/><use transform="matrix(0.06172839506172837,0,0,0.06172839506172837,30.802469135802458,0)" xlink:href="#x"/><use transform="matrix(0.06172839506172837,0,0,0.06172839506172837,41.91358024691357,0)" xlink:href="#G"/><use transform="matrix(0.06172839506172837,0,0,0.06172839506172837,46.79012345679011,0)" xlink:href="#H"/></g><path fill="#333" d="M85-194c31 0 48 13 60 33l-1-100h32l1 261h-30c-2-10 0-23-3-31C134-8 116 4 85 4 32 4 16-35 15-94c0-66 23-100 70-100zm9 24c-40 0-46 34-46 75 0 40 6 74 45 74 42 0 51-32 51-76 0-42-9-74-50-73" id="J"/><path fill="#333" d="M115-194c55 1 70 41 70 98S169 2 115 4C84 4 66-9 55-30l1 105H24l-1-265h31l2 30c10-21 28-34 59-34zm-8 174c40 0 45-34 45-75s-6-73-45-74c-42 0-51 32-51 76 0 43 10 73 51 73" id="K"/><path fill="#333" d="M114-163C36-179 61-72 57 0H25l-1-190h30c1 12-1 29 2 39 6-27 23-49 58-41v29" id="L"/><g id="f"><use transform="matrix(0.06172839506172837,0,0,0.06172839506172837,0,0)" xlink:href="#J"/><use transform="matrix(0.06172839506172837,0,0,0.06172839506172837,12.345679012345673,0)" xlink:href="#v"/><use transform="matrix(0.06172839506172837,0,0,0.06172839506172837,24.691358024691347,0)" xlink:href="#H"/><use transform="matrix(0.06172839506172837,0,0,0.06172839506172837,35.802469135802454,0)" xlink:href="#A"/><use transform="matrix(0.06172839506172837,0,0,0.06172839506172837,48.148148148148124,0)" xlink:href="#B"/><use transform="matrix(0.06172839506172837,0,0,0.06172839506172837,66.60493827160491,0)" xlink:href="#K"/><use transform="matrix(0.06172839506172837,0,0,0.06172839506172837,78.95061728395058,0)" xlink:href="#L"/><use transform="matrix(0.06172839506172837,0,0,0.06172839506172837,86.29629629629625,0)" xlink:href="#v"/><use transform="matrix(0.06172839506172837,0,0,0.06172839506172837,98.64197530864192,0)" xlink:href="#x"/><use transform="matrix(0.06172839506172837,0,0,0.06172839506172837,109.75308641975303,0)" xlink:href="#x"/><use transform="matrix(0.06172839506172837,0,0,0.06172839506172837,120.86419753086415,0)" xlink:href="#A"/><use transform="matrix(0.06172839506172837,0,0,0.06172839506172837,133.20987654320982,0)" xlink:href="#L"/></g><path fill="#333" d="M212-179c-10-28-35-45-73-45-59 0-87 40-87 99 0 60 29 101 89 101 43 0 62-24 78-52l27 14C228-24 195 4 139 4 59 4 22-46 18-125c-6-104 99-153 187-111 19 9 31 26 39 46" id="M"/><g id="g"><use transform="matrix(0.06172839506172837,0,0,0.06172839506172837,0,0)" xlink:href="#M"/><use transform="matrix(0.06172839506172837,0,0,0.06172839506172837,15.987654320987648,0)" xlink:href="#y"/><use transform="matrix(0.06172839506172837,0,0,0.06172839506172837,28.33333333333332,0)" xlink:href="#L"/><use transform="matrix(0.06172839506172837,0,0,0.06172839506172837,35.679012345679,0)" xlink:href="#A"/><use transform="matrix(0.06172839506172837,0,0,0.06172839506172837,48.02469135802467,0)" xlink:href="#F"/><use transform="matrix(0.06172839506172837,0,0,0.06172839506172837,52.90123456790121,0)" xlink:href="#w"/><use transform="matrix(0.06172839506172837,0,0,0.06172839506172837,57.098765432098745,0)" xlink:href="#x"/></g><path fill="#333" d="M9 0v-24l116-142H16v-24h144v24L44-24h123V0H9" id="N"/><g id="h"><use transform="matrix(0.06172839506172837,0,0,0.06172839506172837,0,0)" xlink:href="#u"/><use transform="matrix(0.06172839506172837,0,0,0.06172839506172837,11.111111111111107,0)" xlink:href="#G"/><use transform="matrix(0.06172839506172837,0,0,0.06172839506172837,15.987654320987648,0)" xlink:href="#x"/><use transform="matrix(0.06172839506172837,0,0,0.06172839506172837,27.098765432098755,0)" xlink:href="#I"/><use transform="matrix(0.06172839506172837,0,0,0.06172839506172837,39.44444444444443,0)" xlink:href="#y"/><use transform="matrix(0.06172839506172837,0,0,0.06172839506172837,51.7901234567901,0)" xlink:href="#F"/><use transform="matrix(0.06172839506172837,0,0,0.06172839506172837,56.66666666666664,0)" xlink:href="#G"/><use transform="matrix(0.06172839506172837,0,0,0.06172839506172837,61.54320987654319,0)" xlink:href="#N"/><use transform="matrix(0.06172839506172837,0,0,0.06172839506172837,72.6543209876543,0)" xlink:href="#v"/><use transform="matrix(0.06172839506172837,0,0,0.06172839506172837,84.99999999999997,0)" xlink:href="#L"/></g><path fill="#333" d="M30-248c118-7 216 8 213 122C240-48 200 0 122 0H30v-248zM63-27c89 8 146-16 146-99s-60-101-146-95v194" id="O"/><g id="i"><use transform="matrix(0.06172839506172837,0,0,0.06172839506172837,0,0)" xlink:href="#O"/><use transform="matrix(0.06172839506172837,0,0,0.06172839506172837,15.987654320987648,0)" xlink:href="#y"/><use transform="matrix(0.06172839506172837,0,0,0.06172839506172837,28.33333333333332,0)" xlink:href="#u"/><use transform="matrix(0.06172839506172837,0,0,0.06172839506172837,39.44444444444443,0)" xlink:href="#v"/><use transform="matrix(0.06172839506172837,0,0,0.06172839506172837,51.7901234567901,0)" xlink:href="#w"/><use transform="matrix(0.06172839506172837,0,0,0.06172839506172837,55.98765432098763,0)" xlink:href="#x"/></g><g id="j"><use transform="matrix(0.06172839506172837,0,0,0.06172839506172837,0,0)" xlink:href="#y"/><use transform="matrix(0.06172839506172837,0,0,0.06172839506172837,12.345679012345673,0)" xlink:href="#z"/><use transform="matrix(0.06172839506172837,0,0,0.06172839506172837,28.33333333333332,0)" xlink:href="#v"/><use transform="matrix(0.06172839506172837,0,0,0.06172839506172837,40.679012345679,0)" xlink:href="#x"/><use transform="matrix(0.06172839506172837,0,0,0.06172839506172837,51.790123456790106,0)" xlink:href="#A"/><use transform="matrix(0.06172839506172837,0,0,0.06172839506172837,64.13580246913578,0)" xlink:href="#B"/><use transform="matrix(0.06172839506172837,0,0,0.06172839506172837,82.59259259259257,0)" xlink:href="#v"/></g><g id="k"><use transform="matrix(0.06172839506172837,0,0,0.06172839506172837,0,0)" xlink:href="#J"/><use transform="matrix(0.06172839506172837,0,0,0.06172839506172837,12.345679012345673,0)" xlink:href="#v"/><use transform="matrix(0.06172839506172837,0,0,0.06172839506172837,24.691358024691347,0)" xlink:href="#B"/><use transform="matrix(0.06172839506172837,0,0,0.06172839506172837,43.14814814814813,0)" xlink:href="#A"/></g><path fill="#333" d="M160-131c35 5 61 23 61 61C221 17 115-2 30 0v-248c76 3 177-17 177 60 0 33-19 50-47 57zm-97-11c50-1 110 9 110-42 0-47-63-36-110-37v79zm0 115c55-2 124 14 124-45 0-56-70-42-124-44v89" id="P"/><path fill="#333" d="M115-194c53 0 69 39 70 98 0 66-23 100-70 100C84 3 66-7 56-30L54 0H23l1-261h32v101c10-23 28-34 59-34zm-8 174c40 0 45-34 45-75 0-40-5-75-45-74-42 0-51 32-51 76 0 43 10 73 51 73" id="Q"/><g id="l"><use transform="matrix(0.06172839506172839,0,0,0.06172839506172839,0,0)" xlink:href="#P"/><use transform="matrix(0.06172839506172839,0,0,0.06172839506172839,14.814814814814813,0)" xlink:href="#A"/><use transform="matrix(0.06172839506172839,0,0,0.06172839506172839,27.160493827160494,0)" xlink:href="#Q"/><use transform="matrix(0.06172839506172839,0,0,0.06172839506172839,39.50617283950617,0)" xlink:href="#w"/><use transform="matrix(0.06172839506172839,0,0,0.06172839506172839,43.7037037037037,0)" xlink:href="#x"/></g><g id="m"><use transform="matrix(0.06172839506172839,0,0,0.06172839506172839,0,0)" xlink:href="#B"/><use transform="matrix(0.06172839506172839,0,0,0.06172839506172839,18.456790123456788,0)" xlink:href="#I"/><use transform="matrix(0.06172839506172839,0,0,0.06172839506172839,30.80246913580247,0)" xlink:href="#x"/><use transform="matrix(0.06172839506172839,0,0,0.06172839506172839,41.91358024691358,0)" xlink:href="#G"/><use transform="matrix(0.06172839506172839,0,0,0.06172839506172839,46.79012345679013,0)" xlink:href="#H"/></g><path fill="#333" d="M179-190L93 31C79 59 56 82 12 73V49c39 6 53-20 64-50L1-190h34L92-34l54-156h33" id="R"/><g id="n"><use transform="matrix(0.06172839506172839,0,0,0.06172839506172839,0,0)" xlink:href="#K"/><use transform="matrix(0.06172839506172839,0,0,0.06172839506172839,12.345679012345679,0)" xlink:href="#F"/><use transform="matrix(0.06172839506172839,0,0,0.06172839506172839,17.22222222222222,0)" xlink:href="#y"/><use transform="matrix(0.06172839506172839,0,0,0.06172839506172839,29.5679012345679,0)" xlink:href="#R"/><use transform="matrix(0.06172839506172839,0,0,0.06172839506172839,40.67901234567901,0)" xlink:href="#v"/><use transform="matrix(0.06172839506172839,0,0,0.06172839506172839,53.02469135802469,0)" xlink:href="#L"/></g><path fill="#333" d="M128 0H69L1-190h53L99-40l48-150h52" id="S"/><path fill="#333" d="M25-224v-37h50v37H25zM25 0v-190h50V0H25" id="T"/><path fill="#333" d="M137-138c1-29-70-34-71-4 15 46 118 7 119 86 1 83-164 76-172 9l43-7c4 19 20 25 44 25 33 8 57-30 24-41C81-84 22-81 20-136c-2-80 154-74 161-7" id="U"/><path fill="#333" d="M85 4C-2 5 27-109 22-190h50c7 57-23 150 33 157 60-5 35-97 40-157h50l1 190h-47c-2-12 1-28-3-38-12 25-28 42-61 42" id="V"/><path fill="#333" d="M133-34C117-15 103 5 69 4 32 3 11-16 11-54c-1-60 55-63 116-61 1-26-3-47-28-47-18 1-26 9-28 27l-52-2c7-38 36-58 82-57s74 22 75 68l1 82c-1 14 12 18 25 15v27c-30 8-71 5-69-32zm-48 3c29 0 43-24 42-57-32 0-66-3-65 30 0 17 8 27 23 27" id="W"/><path fill="#333" d="M25 0v-261h50V0H25" id="X"/><path fill="#333" d="M12 0v-35l95-120H19v-35h142v35L67-36h103V0H12" id="Y"/><path fill="#333" d="M185-48c-13 30-37 53-82 52C43 2 14-33 14-96s30-98 90-98c62 0 83 45 84 108H66c0 31 8 55 39 56 18 0 30-7 34-22zm-45-69c5-46-57-63-70-21-2 6-4 13-4 21h74" id="Z"/><path fill="#333" d="M-4 44V30h207v14H-4" id="aa"/><path fill="#333" d="M190-63c-7 42-38 67-86 67-59 0-84-38-90-98-12-110 154-137 174-36l-49 2c-2-19-15-32-35-32-30 0-35 28-38 64-6 74 65 87 74 30" id="ab"/><path fill="#333" d="M114-157C55-157 80-60 75 0H25v-261h50l-1 109c12-26 28-41 61-42 86-1 58 113 63 194h-50c-7-57 23-157-34-157" id="ac"/><path fill="#333" d="M135-194c87-1 58 113 63 194h-50c-7-57 23-157-34-157-59 0-34 97-39 157H25l-1-190h47c2 12-1 28 3 38 12-26 28-41 61-42" id="ad"/><path fill="#333" d="M147 0L96-86 75-71V0H25v-261h50v150l67-79h53l-66 74L201 0h-54" id="ae"/><path fill="#333" d="M67-93c0 74 22 123 53 168H70C40 30 18-18 18-93s22-123 52-168h50c-32 44-53 94-53 168" id="af"/><path fill="#333" d="M102-93c0 74-22 123-52 168H0C30 29 54-18 53-93c0-74-22-123-53-168h50c30 45 52 94 52 168" id="ag"/><g id="o"><use transform="matrix(0.04938271604938272,0,0,0.04938271604938272,0,0)" xlink:href="#S"/><use transform="matrix(0.04938271604938272,0,0,0.04938271604938272,9.876543209876544,0)" xlink:href="#T"/><use transform="matrix(0.04938271604938272,0,0,0.04938271604938272,14.814814814814817,0)" xlink:href="#U"/><use transform="matrix(0.04938271604938272,0,0,0.04938271604938272,24.69135802469136,0)" xlink:href="#V"/><use transform="matrix(0.04938271604938272,0,0,0.04938271604938272,35.50617283950618,0)" xlink:href="#W"/><use transform="matrix(0.04938271604938272,0,0,0.04938271604938272,45.38271604938272,0)" xlink:href="#X"/><use transform="matrix(0.04938271604938272,0,0,0.04938271604938272,50.320987654320994,0)" xlink:href="#T"/><use transform="matrix(0.04938271604938272,0,0,0.04938271604938272,55.25925925925927,0)" xlink:href="#Y"/><use transform="matrix(0.04938271604938272,0,0,0.04938271604938272,64.14814814814815,0)" xlink:href="#Z"/><use transform="matrix(0.04938271604938272,0,0,0.04938271604938272,74.0246913580247,0)" xlink:href="#aa"/><use transform="matrix(0.04938271604938272,0,0,0.04938271604938272,83.90123456790124,0)" xlink:href="#ab"/><use transform="matrix(0.04938271604938272,0,0,0.04938271604938272,93.77777777777779,0)" xlink:href="#ac"/><use transform="matrix(0.04938271604938272,0,0,0.04938271604938272,104.5925925925926,0)" xlink:href="#V"/><use transform="matrix(0.04938271604938272,0,0,0.04938271604938272,115.40740740740739,0)" xlink:href="#ad"/><use transform="matrix(0.04938271604938272,0,0,0.04938271604938272,126.22222222222221,0)" xlink:href="#ae"/><use transform="matrix(0.04938271604938272,0,0,0.04938271604938272,136.09876543209876,0)" xlink:href="#af"/><use transform="matrix(0.04938271604938272,0,0,0.04938271604938272,141.9753086419753,0)" xlink:href="#ab"/><use transform="matrix(0.04938271604938272,0,0,0.04938271604938272,151.85185185185185,0)" xlink:href="#ac"/><use transform="matrix(0.04938271604938272,0,0,0.04938271604938272,162.66666666666666,0)" xlink:href="#V"/><use transform="matrix(0.04938271604938272,0,0,0.04938271604938272,173.48148148148147,0)" xlink:href="#ad"/><use transform="matrix(0.04938271604938272,0,0,0.04938271604938272,184.29629629629628,0)" xlink:href="#ae"/><use transform="matrix(0.04938271604938272,0,0,0.04938271604938272,194.1728395061728,0)" xlink:href="#ag"/></g><path fill="#333" d="M88-194c31-1 46 15 58 34l-1-101h50l1 261h-48c-2-10 0-23-3-31C134-8 116 4 84 4 32 4 16-41 15-95c0-56 19-97 73-99zm17 164c33 0 40-30 41-66 1-37-9-64-41-64s-38 30-39 65c0 43 13 65 39 65" id="ah"/><path fill="#333" d="M110-194c64 0 96 36 96 99 0 64-35 99-97 99-61 0-95-36-95-99 0-62 34-99 96-99zm-1 164c35 0 45-28 45-65 0-40-10-65-43-65-34 0-45 26-45 65 0 36 10 65 43 65" id="ai"/><path fill="#333" d="M220-157c-53 9-28 100-34 157h-49v-107c1-27-5-49-29-50C55-147 81-57 75 0H25l-1-190h47c2 12-1 28 3 38 10-53 101-56 108 0 13-22 24-43 59-42 82 1 51 116 57 194h-49v-107c-1-25-5-48-29-50" id="aj"/><path fill="#333" d="M135-194c53 0 70 44 70 98 0 56-19 98-73 100-31 1-45-17-59-34 3 33 2 69 2 105H25l-1-265h48c2 10 0 23 3 31 11-24 29-35 60-35zM114-30c33 0 39-31 40-66 0-38-9-64-40-64-56 0-55 130 0 130" id="ak"/><path fill="#333" d="M135-150c-39-12-60 13-60 57V0H25l-1-190h47c2 13-1 29 3 40 6-28 27-53 61-41v41" id="al"/><path fill="#333" d="M195-6C206 82 75 100 31 46c-4-6-6-13-8-21l49-6c3 16 16 24 34 25 40 0 42-37 40-79-11 22-30 35-61 35-53 0-70-43-70-97 0-56 18-96 73-97 30 0 46 14 59 34l2-30h47zm-90-29c32 0 41-27 41-63 0-35-9-62-40-62-32 0-39 29-40 63 0 36 9 62 39 62" id="am"/><g id="p"><use transform="matrix(0.04938271604938272,0,0,0.04938271604938272,0,0)" xlink:href="#ah"/><use transform="matrix(0.04938271604938272,0,0,0.04938271604938272,10.814814814814815,0)" xlink:href="#Z"/><use transform="matrix(0.04938271604938272,0,0,0.04938271604938272,20.69135802469136,0)" xlink:href="#ab"/><use transform="matrix(0.04938271604938272,0,0,0.04938271604938272,30.567901234567906,0)" xlink:href="#ai"/><use transform="matrix(0.04938271604938272,0,0,0.04938271604938272,41.38271604938272,0)" xlink:href="#aj"/><use transform="matrix(0.04938271604938272,0,0,0.04938271604938272,57.18518518518519,0)" xlink:href="#ak"/><use transform="matrix(0.04938271604938272,0,0,0.04938271604938272,68,0)" xlink:href="#al"/><use transform="matrix(0.04938271604938272,0,0,0.04938271604938272,74.91358024691358,0)" xlink:href="#Z"/><use transform="matrix(0.04938271604938272,0,0,0.04938271604938272,84.79012345679013,0)" xlink:href="#U"/><use transform="matrix(0.04938271604938272,0,0,0.04938271604938272,94.66666666666667,0)" xlink:href="#U"/><use transform="matrix(0.04938271604938272,0,0,0.04938271604938272,104.54320987654322,0)" xlink:href="#aa"/><use transform="matrix(0.04938271604938272,0,0,0.04938271604938272,114.41975308641976,0)" xlink:href="#U"/><use transform="matrix(0.04938271604938272,0,0,0.04938271604938272,124.2962962962963,0)" xlink:href="#ai"/><use transform="matrix(0.04938271604938272,0,0,0.04938271604938272,135.11111111111111,0)" xlink:href="#ad"/><use transform="matrix(0.04938271604938272,0,0,0.04938271604938272,145.92592592592592,0)" xlink:href="#am"/><use transform="matrix(0.04938271604938272,0,0,0.04938271604938272,156.74074074074073,0)" xlink:href="#af"/><use transform="matrix(0.04938271604938272,0,0,0.04938271604938272,162.61728395061726,0)" xlink:href="#U"/><use transform="matrix(0.04938271604938272,0,0,0.04938271604938272,172.49382716049382,0)" xlink:href="#ai"/><use transform="matrix(0.04938271604938272,0,0,0.04938271604938272,183.30864197530863,0)" xlink:href="#ad"/><use transform="matrix(0.04938271604938272,0,0,0.04938271604938272,194.12345679012344,0)" xlink:href="#am"/><use transform="matrix(0.04938271604938272,0,0,0.04938271604938272,204.93827160493825,0)" xlink:href="#ag"/></g><path fill="#333" d="M123 10C108 53 80 86 19 72V37c35 8 53-11 59-39L3-190h52l48 148c12-52 28-100 44-148h51" id="an"/><g id="q"><use transform="matrix(0.04938271604938272,0,0,0.04938271604938272,0,0)" xlink:href="#aa"/><use transform="matrix(0.04938271604938272,0,0,0.04938271604938272,9.876543209876544,0)" xlink:href="#ak"/><use transform="matrix(0.04938271604938272,0,0,0.04938271604938272,20.69135802469136,0)" xlink:href="#X"/><use transform="matrix(0.04938271604938272,0,0,0.04938271604938272,25.629629629629633,0)" xlink:href="#W"/><use transform="matrix(0.04938271604938272,0,0,0.04938271604938272,35.50617283950618,0)" xlink:href="#an"/><use transform="matrix(0.04938271604938272,0,0,0.04938271604938272,45.38271604938272,0)" xlink:href="#af"/><use transform="matrix(0.04938271604938272,0,0,0.04938271604938272,51.25925925925927,0)" xlink:href="#ag"/></g><path fill="#333" d="M115-3C79 11 28 4 28-45v-112H4v-33h27l15-45h31v45h36v33H77v99c-1 23 16 31 38 25v30" id="ao"/><g id="r"><use transform="matrix(0.04938271604938272,0,0,0.04938271604938272,0,0)" xlink:href="#am"/><use transform="matrix(0.04938271604938272,0,0,0.04938271604938272,10.814814814814815,0)" xlink:href="#Z"/><use transform="matrix(0.04938271604938272,0,0,0.04938271604938272,20.69135802469136,0)" xlink:href="#ao"/><use transform="matrix(0.04938271604938272,0,0,0.04938271604938272,26.567901234567902,0)" xlink:href="#aa"/><use transform="matrix(0.04938271604938272,0,0,0.04938271604938272,36.44444444444445,0)" xlink:href="#U"/><use transform="matrix(0.04938271604938272,0,0,0.04938271604938272,46.320987654320994,0)" xlink:href="#ai"/><use transform="matrix(0.04938271604938272,0,0,0.04938271604938272,57.135802469135804,0)" xlink:href="#ad"/><use transform="matrix(0.04938271604938272,0,0,0.04938271604938272,67.95061728395062,0)" xlink:href="#am"/><use transform="matrix(0.04938271604938272,0,0,0.04938271604938272,78.76543209876543,0)" xlink:href="#af"/><use transform="matrix(0.04938271604938272,0,0,0.04938271604938272,84.64197530864197,0)" xlink:href="#ag"/></g><g id="s"><use transform="matrix(0.04938271604938272,0,0,0.04938271604938272,0,0)" xlink:href="#ak"/><use transform="matrix(0.04938271604938272,0,0,0.04938271604938272,10.814814814814815,0)" xlink:href="#X"/><use transform="matrix(0.04938271604938272,0,0,0.04938271604938272,15.753086419753087,0)" xlink:href="#W"/><use transform="matrix(0.04938271604938272,0,0,0.04938271604938272,25.629629629629633,0)" xlink:href="#an"/><use transform="matrix(0.04938271604938272,0,0,0.04938271604938272,35.50617283950618,0)" xlink:href="#aa"/><use transform="matrix(0.04938271604938272,0,0,0.04938271604938272,45.38271604938272,0)" xlink:href="#ab"/><use transform="matrix(0.04938271604938272,0,0,0.04938271604938272,55.25925925925927,0)" xlink:href="#ac"/><use transform="matrix(0.04938271604938272,0,0,0.04938271604938272,66.07407407407408,0)" xlink:href="#V"/><use transform="matrix(0.04938271604938272,0,0,0.04938271604938272,76.88888888888889,0)" xlink:href="#ad"/><use transform="matrix(0.04938271604938272,0,0,0.04938271604938272,87.7037037037037,0)" xlink:href="#ae"/><use transform="matrix(0.04938271604938272,0,0,0.04938271604938272,97.58024691358024,0)" xlink:href="#af"/><use transform="matrix(0.04938271604938272,0,0,0.04938271604938272,103.45679012345677,0)" xlink:href="#ab"/><use transform="matrix(0.04938271604938272,0,0,0.04938271604938272,113.33333333333331,0)" xlink:href="#ac"/><use transform="matrix(0.04938271604938272,0,0,0.04938271604938272,124.14814814814814,0)" xlink:href="#V"/><use transform="matrix(0.04938271604938272,0,0,0.04938271604938272,134.96296296296296,0)" xlink:href="#ad"/><use transform="matrix(0.04938271604938272,0,0,0.04938271604938272,145.77777777777777,0)" xlink:href="#ae"/><use transform="matrix(0.04938271604938272,0,0,0.04938271604938272,155.65432098765433,0)" xlink:href="#ag"/></g></defs></g></svg>